<svg xmlns="http://www.w3.org/2000/svg" xmlns:xlink="http://www.w3.org/1999/xlink" width="500" zoomAndPan="magnify" viewBox="0 0 375 374.999991" height="500" preserveAspectRatio="xMidYMid meet" version="1.0"><defs><g/><clipPath id="id1"><path d="M 95 125 L 258 125 L 258 179 L 95 179 Z M 95 125 " clip-rule="nonzero"/></clipPath><clipPath id="id2"><path d="M 116.242188 226.386719 L 90.21875 153.652344 L 231.449219 103.121094 L 257.476562 175.855469 Z M 116.242188 226.386719 " clip-rule="nonzero"/></clipPath><clipPath id="id3"><path d="M 116.242188 226.386719 L 90.21875 153.652344 L 231.449219 103.121094 L 257.476562 175.855469 Z M 116.242188 226.386719 " clip-rule="nonzero"/></clipPath></defs><rect x="-37.5" width="450" fill="#ffffff" y="-37.499999" height="449.999989" fill-opacity="1"/><rect x="-37.5" width="450" fill="#ffffff" y="-37.499999" height="449.999989" fill-opacity="1"/><rect x="-37.5" width="450" fill="#ffffff" y="-37.499999" height="449.999989" fill-opacity="1"/><rect x="-37.5" width="450" fill="#ffffff" y="-37.499999" height="449.999989" fill-opacity="1"/><g fill="#000000" fill-opacity="1"><g transform="translate(19.167485, 223.992592)"><g><path d="M 13.71875 -23.0625 C 12.96875 -23.0625 12.367188 -23.007812 11.921875 -22.90625 C 11.472656 -22.8125 11.128906 -22.632812 10.890625 -22.375 C 10.660156 -22.113281 10.507812 -21.753906 10.4375 -21.296875 C 10.375 -20.835938 10.34375 -20.242188 10.34375 -19.515625 L 10.34375 -7.921875 C 10.34375 -6.941406 10.25 -5.945312 10.0625 -4.9375 C 9.875 -3.9375 9.546875 -3.023438 9.078125 -2.203125 C 8.617188 -1.378906 8 -0.707031 7.21875 -0.1875 C 6.4375 0.320312 5.453125 0.578125 4.265625 0.578125 C 3.859375 0.578125 3.445312 0.523438 3.03125 0.421875 C 2.613281 0.328125 2.238281 0.171875 1.90625 -0.046875 C 1.582031 -0.273438 1.3125 -0.5625 1.09375 -0.90625 C 0.875 -1.25 0.765625 -1.660156 0.765625 -2.140625 C 0.765625 -3.335938 1.351562 -3.9375 2.53125 -3.9375 C 3.007812 -3.9375 3.382812 -3.769531 3.65625 -3.4375 C 3.9375 -3.101562 4.175781 -2.734375 4.375 -2.328125 C 4.582031 -1.921875 4.773438 -1.550781 4.953125 -1.21875 C 5.140625 -0.882812 5.390625 -0.71875 5.703125 -0.71875 C 6.015625 -0.71875 6.253906 -0.8125 6.421875 -1 C 6.585938 -1.195312 6.710938 -1.429688 6.796875 -1.703125 C 6.890625 -1.972656 6.941406 -2.253906 6.953125 -2.546875 C 6.972656 -2.835938 6.984375 -3.09375 6.984375 -3.3125 L 6.984375 -19.515625 C 6.984375 -20.234375 6.945312 -20.816406 6.875 -21.265625 C 6.800781 -21.722656 6.648438 -22.085938 6.421875 -22.359375 C 6.191406 -22.628906 5.851562 -22.8125 5.40625 -22.90625 C 4.957031 -23.007812 4.347656 -23.0625 3.578125 -23.0625 L 3.578125 -23.703125 L 13.71875 -23.703125 Z M 13.71875 -23.0625 "/></g></g></g><g fill="#000000" fill-opacity="1"><g transform="translate(37.8703, 223.992592)"><g><path d="M 15.859375 -2.3125 C 15.640625 -2.019531 15.394531 -1.710938 15.125 -1.390625 C 14.851562 -1.078125 14.554688 -0.789062 14.234375 -0.53125 C 13.921875 -0.28125 13.578125 -0.078125 13.203125 0.078125 C 12.835938 0.242188 12.457031 0.328125 12.0625 0.328125 C 11.6875 0.328125 11.378906 0.25 11.140625 0.09375 C 10.898438 -0.0625 10.707031 -0.265625 10.5625 -0.515625 C 10.425781 -0.773438 10.332031 -1.054688 10.28125 -1.359375 C 10.226562 -1.671875 10.203125 -1.988281 10.203125 -2.3125 C 9.816406 -2.007812 9.429688 -1.703125 9.046875 -1.390625 C 8.660156 -1.078125 8.253906 -0.789062 7.828125 -0.53125 C 7.410156 -0.28125 6.976562 -0.078125 6.53125 0.078125 C 6.082031 0.242188 5.597656 0.328125 5.078125 0.328125 C 4.472656 0.328125 3.9375 0.222656 3.46875 0.015625 C 3 -0.191406 2.597656 -0.484375 2.265625 -0.859375 C 1.941406 -1.234375 1.695312 -1.671875 1.53125 -2.171875 C 1.363281 -2.671875 1.28125 -3.210938 1.28125 -3.796875 C 1.28125 -4.453125 1.425781 -5.050781 1.71875 -5.59375 C 2.019531 -6.132812 2.414062 -6.628906 2.90625 -7.078125 C 3.40625 -7.523438 3.972656 -7.925781 4.609375 -8.28125 C 5.242188 -8.644531 5.894531 -8.96875 6.5625 -9.25 C 7.226562 -9.539062 7.875 -9.796875 8.5 -10.015625 C 9.132812 -10.234375 9.703125 -10.425781 10.203125 -10.59375 L 10.203125 -11.25 C 10.203125 -11.789062 10.164062 -12.3125 10.09375 -12.8125 C 10.03125 -13.3125 9.890625 -13.757812 9.671875 -14.15625 C 9.453125 -14.550781 9.148438 -14.863281 8.765625 -15.09375 C 8.378906 -15.320312 7.859375 -15.4375 7.203125 -15.4375 C 6.671875 -15.4375 6.25 -15.363281 5.9375 -15.21875 C 5.625 -15.070312 5.382812 -14.863281 5.21875 -14.59375 C 5.0625 -14.320312 4.957031 -14.003906 4.90625 -13.640625 C 4.863281 -13.273438 4.84375 -12.878906 4.84375 -12.453125 C 4.84375 -11.921875 4.742188 -11.507812 4.546875 -11.21875 C 4.347656 -10.925781 3.953125 -10.78125 3.359375 -10.78125 C 2.816406 -10.78125 2.4375 -10.929688 2.21875 -11.234375 C 2.007812 -11.546875 1.90625 -11.953125 1.90625 -12.453125 C 1.90625 -13.179688 2.097656 -13.800781 2.484375 -14.3125 C 2.867188 -14.820312 3.347656 -15.238281 3.921875 -15.5625 C 4.503906 -15.882812 5.132812 -16.117188 5.8125 -16.265625 C 6.5 -16.410156 7.144531 -16.484375 7.75 -16.484375 C 8.75 -16.484375 9.59375 -16.382812 10.28125 -16.1875 C 10.96875 -16 11.519531 -15.679688 11.9375 -15.234375 C 12.351562 -14.796875 12.648438 -14.226562 12.828125 -13.53125 C 13.003906 -12.84375 13.09375 -12.003906 13.09375 -11.015625 L 13.09375 -5.5625 C 13.09375 -5.332031 13.09375 -5.082031 13.09375 -4.8125 C 13.09375 -4.550781 13.097656 -4.289062 13.109375 -4.03125 C 13.117188 -3.78125 13.125 -3.539062 13.125 -3.3125 C 13.132812 -3.09375 13.15625 -2.910156 13.1875 -2.765625 C 13.21875 -2.546875 13.285156 -2.347656 13.390625 -2.171875 C 13.503906 -1.992188 13.691406 -1.90625 13.953125 -1.90625 C 14.078125 -1.90625 14.234375 -1.960938 14.421875 -2.078125 C 14.609375 -2.191406 14.789062 -2.328125 14.96875 -2.484375 C 15.15625 -2.640625 15.332031 -2.789062 15.5 -2.9375 C 15.664062 -3.09375 15.785156 -3.21875 15.859375 -3.3125 Z M 10.203125 -9.59375 C 9.617188 -9.382812 8.976562 -9.125 8.28125 -8.8125 C 7.582031 -8.5 6.929688 -8.140625 6.328125 -7.734375 C 5.722656 -7.328125 5.21875 -6.863281 4.8125 -6.34375 C 4.414062 -5.820312 4.21875 -5.242188 4.21875 -4.609375 C 4.21875 -4.253906 4.269531 -3.90625 4.375 -3.5625 C 4.488281 -3.226562 4.648438 -2.921875 4.859375 -2.640625 C 5.078125 -2.359375 5.335938 -2.132812 5.640625 -1.96875 C 5.941406 -1.800781 6.296875 -1.71875 6.703125 -1.71875 C 7.015625 -1.71875 7.320312 -1.769531 7.625 -1.875 C 7.9375 -1.988281 8.242188 -2.132812 8.546875 -2.3125 C 8.847656 -2.488281 9.140625 -2.679688 9.421875 -2.890625 C 9.710938 -3.097656 9.972656 -3.296875 10.203125 -3.484375 Z M 10.203125 -9.59375 "/></g></g></g><g fill="#000000" fill-opacity="1"><g transform="translate(58.520203, 223.992592)"><g><path d="M 12.203125 -14.53125 C 12.203125 -14.101562 12.039062 -13.726562 11.71875 -13.40625 C 11.40625 -13.082031 11.03125 -12.921875 10.59375 -12.921875 C 10.300781 -12.921875 10.046875 -12.984375 9.828125 -13.109375 C 9.609375 -13.242188 9.398438 -13.382812 9.203125 -13.53125 C 9.015625 -13.675781 8.835938 -13.8125 8.671875 -13.9375 C 8.503906 -14.070312 8.316406 -14.140625 8.109375 -14.140625 C 7.773438 -14.140625 7.398438 -13.875 6.984375 -13.34375 C 6.566406 -12.820312 6.171875 -12.191406 5.796875 -11.453125 L 5.796875 -3.703125 C 5.796875 -2.679688 5.988281 -1.921875 6.375 -1.421875 C 6.757812 -0.921875 7.503906 -0.671875 8.609375 -0.671875 L 8.609375 0 L 0.328125 0 L 0.328125 -0.671875 C 0.929688 -0.671875 1.394531 -0.71875 1.71875 -0.8125 C 2.050781 -0.90625 2.300781 -1.066406 2.46875 -1.296875 C 2.644531 -1.523438 2.753906 -1.828125 2.796875 -2.203125 C 2.835938 -2.585938 2.859375 -3.054688 2.859375 -3.609375 L 2.859375 -10.53125 C 2.859375 -11.082031 2.84375 -11.578125 2.8125 -12.015625 C 2.789062 -12.460938 2.734375 -12.84375 2.640625 -13.15625 C 2.546875 -13.476562 2.398438 -13.722656 2.203125 -13.890625 C 2.015625 -14.054688 1.753906 -14.140625 1.421875 -14.140625 C 1.078125 -14.140625 0.710938 -14.0625 0.328125 -13.90625 L 0.140625 -14.53125 L 5.078125 -16.484375 L 5.796875 -16.484375 L 5.796875 -12.875 C 5.992188 -13.238281 6.234375 -13.628906 6.515625 -14.046875 C 6.796875 -14.460938 7.109375 -14.851562 7.453125 -15.21875 C 7.796875 -15.582031 8.171875 -15.882812 8.578125 -16.125 C 8.992188 -16.363281 9.441406 -16.484375 9.921875 -16.484375 C 10.203125 -16.484375 10.476562 -16.441406 10.75 -16.359375 C 11.03125 -16.273438 11.273438 -16.144531 11.484375 -15.96875 C 11.691406 -15.800781 11.863281 -15.597656 12 -15.359375 C 12.132812 -15.117188 12.203125 -14.84375 12.203125 -14.53125 Z M 12.203125 -14.53125 "/></g></g></g><g fill="#000000" fill-opacity="1"><g transform="translate(75.507726, 223.992592)"><g><path d="M 13.1875 0.53125 L 12.453125 0.53125 L 12.453125 -1.8125 C 11.804688 -1.125 11.09375 -0.5625 10.3125 -0.125 C 9.53125 0.3125 8.675781 0.53125 7.75 0.53125 C 6.695312 0.53125 5.765625 0.300781 4.953125 -0.15625 C 4.140625 -0.625 3.453125 -1.234375 2.890625 -1.984375 C 2.335938 -2.734375 1.914062 -3.570312 1.625 -4.5 C 1.332031 -5.4375 1.1875 -6.367188 1.1875 -7.296875 C 1.1875 -8.410156 1.363281 -9.507812 1.71875 -10.59375 C 2.070312 -11.6875 2.582031 -12.671875 3.25 -13.546875 C 3.925781 -14.421875 4.75 -15.128906 5.71875 -15.671875 C 6.6875 -16.210938 7.769531 -16.484375 8.96875 -16.484375 C 9.625 -16.484375 10.25 -16.378906 10.84375 -16.171875 C 11.4375 -15.960938 11.972656 -15.617188 12.453125 -15.140625 L 12.453125 -20.328125 C 12.453125 -21.023438 12.351562 -21.570312 12.15625 -21.96875 C 11.96875 -22.363281 11.648438 -22.5625 11.203125 -22.5625 C 10.984375 -22.5625 10.773438 -22.539062 10.578125 -22.5 C 10.390625 -22.457031 10.1875 -22.398438 9.96875 -22.328125 L 9.734375 -22.9375 L 14.578125 -24.828125 L 15.34375 -24.828125 L 15.34375 -4.921875 C 15.34375 -4.453125 15.351562 -4.023438 15.375 -3.640625 C 15.40625 -3.265625 15.460938 -2.941406 15.546875 -2.671875 C 15.628906 -2.398438 15.753906 -2.1875 15.921875 -2.03125 C 16.097656 -1.882812 16.332031 -1.8125 16.625 -1.8125 C 16.8125 -1.8125 17.007812 -1.835938 17.21875 -1.890625 C 17.425781 -1.941406 17.640625 -2.007812 17.859375 -2.09375 L 18.03125 -1.453125 Z M 12.453125 -11.296875 C 12.453125 -11.785156 12.359375 -12.273438 12.171875 -12.765625 C 11.984375 -13.265625 11.722656 -13.710938 11.390625 -14.109375 C 11.054688 -14.503906 10.660156 -14.820312 10.203125 -15.0625 C 9.753906 -15.3125 9.265625 -15.4375 8.734375 -15.4375 C 7.898438 -15.4375 7.203125 -15.210938 6.640625 -14.765625 C 6.085938 -14.316406 5.644531 -13.753906 5.3125 -13.078125 C 4.988281 -12.410156 4.753906 -11.6875 4.609375 -10.90625 C 4.472656 -10.125 4.40625 -9.398438 4.40625 -8.734375 C 4.40625 -7.992188 4.488281 -7.195312 4.65625 -6.34375 C 4.832031 -5.5 5.109375 -4.707031 5.484375 -3.96875 C 5.859375 -3.238281 6.359375 -2.628906 6.984375 -2.140625 C 7.609375 -1.660156 8.378906 -1.421875 9.296875 -1.421875 C 9.929688 -1.421875 10.515625 -1.578125 11.046875 -1.890625 C 11.578125 -2.203125 12.046875 -2.582031 12.453125 -3.03125 Z M 12.453125 -11.296875 "/></g></g></g><g fill="#000000" fill-opacity="1"><g transform="translate(98.151075, 223.992592)"><g><path d="M 7.03125 -21.46875 C 7.03125 -20.976562 6.859375 -20.550781 6.515625 -20.1875 C 6.171875 -19.832031 5.753906 -19.65625 5.265625 -19.65625 C 4.765625 -19.65625 4.34375 -19.828125 4 -20.171875 C 3.65625 -20.515625 3.484375 -20.945312 3.484375 -21.46875 C 3.484375 -21.96875 3.65625 -22.378906 4 -22.703125 C 4.34375 -23.035156 4.765625 -23.203125 5.265625 -23.203125 C 5.742188 -23.203125 6.15625 -23.03125 6.5 -22.6875 C 6.851562 -22.351562 7.03125 -21.945312 7.03125 -21.46875 Z M 1.328125 0 L 1.328125 -0.671875 C 1.847656 -0.671875 2.269531 -0.707031 2.59375 -0.78125 C 2.914062 -0.863281 3.164062 -1.003906 3.34375 -1.203125 C 3.519531 -1.398438 3.640625 -1.664062 3.703125 -2 C 3.765625 -2.332031 3.796875 -2.753906 3.796875 -3.265625 L 3.796875 -11.828125 C 3.796875 -12.085938 3.785156 -12.351562 3.765625 -12.625 C 3.742188 -12.90625 3.691406 -13.160156 3.609375 -13.390625 C 3.523438 -13.628906 3.398438 -13.820312 3.234375 -13.96875 C 3.066406 -14.113281 2.847656 -14.1875 2.578125 -14.1875 C 2.390625 -14.1875 2.1875 -14.160156 1.96875 -14.109375 C 1.75 -14.054688 1.535156 -13.988281 1.328125 -13.90625 L 1.09375 -14.53125 L 5.9375 -16.484375 L 6.703125 -16.484375 L 6.703125 -3.265625 C 6.703125 -2.753906 6.734375 -2.332031 6.796875 -2 C 6.859375 -1.664062 6.976562 -1.398438 7.15625 -1.203125 C 7.332031 -1.003906 7.578125 -0.863281 7.890625 -0.78125 C 8.210938 -0.707031 8.632812 -0.671875 9.15625 -0.671875 L 9.15625 0 Z M 1.328125 0 "/></g></g></g><g fill="#000000" fill-opacity="1"><g transform="translate(112.866995, 223.992592)"><g><path d="M 9.828125 0 L 9.828125 -0.671875 C 10.429688 -0.671875 10.90625 -0.71875 11.25 -0.8125 C 11.601562 -0.90625 11.867188 -1.0625 12.046875 -1.28125 C 12.222656 -1.507812 12.332031 -1.8125 12.375 -2.1875 C 12.425781 -2.570312 12.453125 -3.046875 12.453125 -3.609375 L 12.453125 -10.15625 C 12.453125 -10.601562 12.429688 -11.070312 12.390625 -11.5625 C 12.347656 -12.0625 12.242188 -12.515625 12.078125 -12.921875 C 11.910156 -13.335938 11.65625 -13.675781 11.3125 -13.9375 C 10.96875 -14.195312 10.503906 -14.328125 9.921875 -14.328125 C 9.503906 -14.328125 9.101562 -14.257812 8.71875 -14.125 C 8.332031 -14 7.960938 -13.832031 7.609375 -13.625 C 7.265625 -13.414062 6.941406 -13.171875 6.640625 -12.890625 C 6.335938 -12.609375 6.054688 -12.332031 5.796875 -12.0625 L 5.796875 -3.609375 C 5.796875 -3.054688 5.816406 -2.585938 5.859375 -2.203125 C 5.910156 -1.828125 6.019531 -1.523438 6.1875 -1.296875 C 6.363281 -1.066406 6.625 -0.90625 6.96875 -0.8125 C 7.3125 -0.71875 7.785156 -0.671875 8.390625 -0.671875 L 8.390625 0 L 0.421875 0 L 0.421875 -0.671875 C 1.003906 -0.671875 1.457031 -0.726562 1.78125 -0.84375 C 2.101562 -0.957031 2.347656 -1.132812 2.515625 -1.375 C 2.679688 -1.613281 2.78125 -1.921875 2.8125 -2.296875 C 2.84375 -2.671875 2.859375 -3.109375 2.859375 -3.609375 L 2.859375 -10.984375 C 2.859375 -11.390625 2.84375 -11.78125 2.8125 -12.15625 C 2.789062 -12.539062 2.738281 -12.882812 2.65625 -13.1875 C 2.570312 -13.488281 2.445312 -13.726562 2.28125 -13.90625 C 2.125 -14.09375 1.90625 -14.1875 1.625 -14.1875 C 1.425781 -14.1875 1.222656 -14.160156 1.015625 -14.109375 C 0.816406 -14.054688 0.617188 -13.988281 0.421875 -13.90625 L 0.1875 -14.53125 L 5.078125 -16.484375 L 5.796875 -16.484375 L 5.796875 -13.09375 C 6.117188 -13.476562 6.476562 -13.875 6.875 -14.28125 C 7.269531 -14.6875 7.691406 -15.050781 8.140625 -15.375 C 8.585938 -15.695312 9.066406 -15.960938 9.578125 -16.171875 C 10.085938 -16.378906 10.613281 -16.484375 11.15625 -16.484375 C 12.019531 -16.484375 12.722656 -16.304688 13.265625 -15.953125 C 13.816406 -15.597656 14.25 -15.128906 14.5625 -14.546875 C 14.875 -13.960938 15.082031 -13.3125 15.1875 -12.59375 C 15.289062 -11.875 15.34375 -11.160156 15.34375 -10.453125 L 15.34375 -3.609375 C 15.34375 -3.109375 15.363281 -2.671875 15.40625 -2.296875 C 15.457031 -1.921875 15.5625 -1.613281 15.71875 -1.375 C 15.882812 -1.132812 16.132812 -0.957031 16.46875 -0.84375 C 16.800781 -0.726562 17.265625 -0.671875 17.859375 -0.671875 L 17.859375 0 Z M 9.828125 0 "/></g></g></g><g fill="#000000" fill-opacity="1"><g transform="translate(135.510345, 223.992592)"><g><path d="M 14.859375 -5.84375 C 14.734375 -5.007812 14.488281 -4.207031 14.125 -3.4375 C 13.769531 -2.675781 13.304688 -2 12.734375 -1.40625 C 12.160156 -0.820312 11.5 -0.351562 10.75 0 C 10 0.351562 9.179688 0.53125 8.296875 0.53125 C 7.148438 0.53125 6.140625 0.289062 5.265625 -0.1875 C 4.398438 -0.664062 3.671875 -1.296875 3.078125 -2.078125 C 2.492188 -2.867188 2.054688 -3.765625 1.765625 -4.765625 C 1.472656 -5.765625 1.328125 -6.789062 1.328125 -7.84375 C 1.328125 -9 1.472656 -10.097656 1.765625 -11.140625 C 2.066406 -12.179688 2.523438 -13.097656 3.140625 -13.890625 C 3.753906 -14.679688 4.523438 -15.3125 5.453125 -15.78125 C 6.390625 -16.25 7.484375 -16.484375 8.734375 -16.484375 C 9.691406 -16.484375 10.550781 -16.320312 11.3125 -16 C 12.070312 -15.675781 12.710938 -15.222656 13.234375 -14.640625 C 13.765625 -14.054688 14.164062 -13.367188 14.4375 -12.578125 C 14.71875 -11.785156 14.859375 -10.914062 14.859375 -9.96875 L 3.796875 -9.96875 C 3.796875 -9.101562 3.910156 -8.222656 4.140625 -7.328125 C 4.378906 -6.429688 4.738281 -5.613281 5.21875 -4.875 C 5.695312 -4.144531 6.300781 -3.539062 7.03125 -3.0625 C 7.769531 -2.59375 8.640625 -2.359375 9.640625 -2.359375 C 10.265625 -2.359375 10.816406 -2.453125 11.296875 -2.640625 C 11.785156 -2.835938 12.21875 -3.109375 12.59375 -3.453125 C 12.976562 -3.804688 13.304688 -4.21875 13.578125 -4.6875 C 13.859375 -5.164062 14.109375 -5.675781 14.328125 -6.21875 Z M 11.203125 -10.96875 C 11.203125 -11.488281 11.132812 -12.007812 11 -12.53125 C 10.863281 -13.050781 10.65625 -13.503906 10.375 -13.890625 C 10.09375 -14.285156 9.734375 -14.609375 9.296875 -14.859375 C 8.859375 -15.109375 8.34375 -15.234375 7.75 -15.234375 C 7.144531 -15.234375 6.609375 -15.113281 6.140625 -14.875 C 5.679688 -14.632812 5.285156 -14.316406 4.953125 -13.921875 C 4.617188 -13.523438 4.351562 -13.066406 4.15625 -12.546875 C 3.96875 -12.035156 3.847656 -11.507812 3.796875 -10.96875 Z M 11.203125 -10.96875 "/></g></g></g><g fill="#000000" fill-opacity="1"><g transform="translate(156.160241, 223.992592)"><g><path d="M 4.5625 -1.1875 L 10.453125 -1.1875 C 11.273438 -1.1875 11.925781 -1.234375 12.40625 -1.328125 C 12.882812 -1.429688 13.257812 -1.617188 13.53125 -1.890625 C 13.800781 -2.160156 14 -2.535156 14.125 -3.015625 C 14.25 -3.492188 14.351562 -4.117188 14.4375 -4.890625 L 15.046875 -4.890625 L 14.8125 0 L 0.71875 0 L 0.71875 -0.671875 L 11.34375 -14.8125 L 6.078125 -14.8125 C 5.410156 -14.8125 4.859375 -14.769531 4.421875 -14.6875 C 3.992188 -14.613281 3.644531 -14.460938 3.375 -14.234375 C 3.101562 -14.003906 2.898438 -13.675781 2.765625 -13.25 C 2.640625 -12.820312 2.535156 -12.269531 2.453125 -11.59375 L 1.8125 -11.59375 L 1.90625 -16 L 15.34375 -16 L 15.34375 -15.34375 Z M 4.5625 -1.1875 "/></g></g></g><g fill="#000000" fill-opacity="1"><g transform="translate(176.810137, 223.992592)"><g/></g></g><g fill="#000000" fill-opacity="1"><g transform="translate(193.426792, 223.992592)"><g><path d="M 13.1875 0.53125 L 12.453125 0.53125 L 12.453125 -1.8125 C 11.804688 -1.125 11.09375 -0.5625 10.3125 -0.125 C 9.53125 0.3125 8.675781 0.53125 7.75 0.53125 C 6.695312 0.53125 5.765625 0.300781 4.953125 -0.15625 C 4.140625 -0.625 3.453125 -1.234375 2.890625 -1.984375 C 2.335938 -2.734375 1.914062 -3.570312 1.625 -4.5 C 1.332031 -5.4375 1.1875 -6.367188 1.1875 -7.296875 C 1.1875 -8.410156 1.363281 -9.507812 1.71875 -10.59375 C 2.070312 -11.6875 2.582031 -12.671875 3.25 -13.546875 C 3.925781 -14.421875 4.75 -15.128906 5.71875 -15.671875 C 6.6875 -16.210938 7.769531 -16.484375 8.96875 -16.484375 C 9.625 -16.484375 10.25 -16.378906 10.84375 -16.171875 C 11.4375 -15.960938 11.972656 -15.617188 12.453125 -15.140625 L 12.453125 -20.328125 C 12.453125 -21.023438 12.351562 -21.570312 12.15625 -21.96875 C 11.96875 -22.363281 11.648438 -22.5625 11.203125 -22.5625 C 10.984375 -22.5625 10.773438 -22.539062 10.578125 -22.5 C 10.390625 -22.457031 10.1875 -22.398438 9.96875 -22.328125 L 9.734375 -22.9375 L 14.578125 -24.828125 L 15.34375 -24.828125 L 15.34375 -4.921875 C 15.34375 -4.453125 15.351562 -4.023438 15.375 -3.640625 C 15.40625 -3.265625 15.460938 -2.941406 15.546875 -2.671875 C 15.628906 -2.398438 15.753906 -2.1875 15.921875 -2.03125 C 16.097656 -1.882812 16.332031 -1.8125 16.625 -1.8125 C 16.8125 -1.8125 17.007812 -1.835938 17.21875 -1.890625 C 17.425781 -1.941406 17.640625 -2.007812 17.859375 -2.09375 L 18.03125 -1.453125 Z M 12.453125 -11.296875 C 12.453125 -11.785156 12.359375 -12.273438 12.171875 -12.765625 C 11.984375 -13.265625 11.722656 -13.710938 11.390625 -14.109375 C 11.054688 -14.503906 10.660156 -14.820312 10.203125 -15.0625 C 9.753906 -15.3125 9.265625 -15.4375 8.734375 -15.4375 C 7.898438 -15.4375 7.203125 -15.210938 6.640625 -14.765625 C 6.085938 -14.316406 5.644531 -13.753906 5.3125 -13.078125 C 4.988281 -12.410156 4.753906 -11.6875 4.609375 -10.90625 C 4.472656 -10.125 4.40625 -9.398438 4.40625 -8.734375 C 4.40625 -7.992188 4.488281 -7.195312 4.65625 -6.34375 C 4.832031 -5.5 5.109375 -4.707031 5.484375 -3.96875 C 5.859375 -3.238281 6.359375 -2.628906 6.984375 -2.140625 C 7.609375 -1.660156 8.378906 -1.421875 9.296875 -1.421875 C 9.929688 -1.421875 10.515625 -1.578125 11.046875 -1.890625 C 11.578125 -2.203125 12.046875 -2.582031 12.453125 -3.03125 Z M 12.453125 -11.296875 "/></g></g></g><g fill="#000000" fill-opacity="1"><g transform="translate(216.070149, 223.992592)"><g><path d="M 14.859375 -5.84375 C 14.734375 -5.007812 14.488281 -4.207031 14.125 -3.4375 C 13.769531 -2.675781 13.304688 -2 12.734375 -1.40625 C 12.160156 -0.820312 11.5 -0.351562 10.75 0 C 10 0.351562 9.179688 0.53125 8.296875 0.53125 C 7.148438 0.53125 6.140625 0.289062 5.265625 -0.1875 C 4.398438 -0.664062 3.671875 -1.296875 3.078125 -2.078125 C 2.492188 -2.867188 2.054688 -3.765625 1.765625 -4.765625 C 1.472656 -5.765625 1.328125 -6.789062 1.328125 -7.84375 C 1.328125 -9 1.472656 -10.097656 1.765625 -11.140625 C 2.066406 -12.179688 2.523438 -13.097656 3.140625 -13.890625 C 3.753906 -14.679688 4.523438 -15.3125 5.453125 -15.78125 C 6.390625 -16.25 7.484375 -16.484375 8.734375 -16.484375 C 9.691406 -16.484375 10.550781 -16.320312 11.3125 -16 C 12.070312 -15.675781 12.710938 -15.222656 13.234375 -14.640625 C 13.765625 -14.054688 14.164062 -13.367188 14.4375 -12.578125 C 14.71875 -11.785156 14.859375 -10.914062 14.859375 -9.96875 L 3.796875 -9.96875 C 3.796875 -9.101562 3.910156 -8.222656 4.140625 -7.328125 C 4.378906 -6.429688 4.738281 -5.613281 5.21875 -4.875 C 5.695312 -4.144531 6.300781 -3.539062 7.03125 -3.0625 C 7.769531 -2.59375 8.640625 -2.359375 9.640625 -2.359375 C 10.265625 -2.359375 10.816406 -2.453125 11.296875 -2.640625 C 11.785156 -2.835938 12.21875 -3.109375 12.59375 -3.453125 C 12.976562 -3.804688 13.304688 -4.21875 13.578125 -4.6875 C 13.859375 -5.164062 14.109375 -5.675781 14.328125 -6.21875 Z M 11.203125 -10.96875 C 11.203125 -11.488281 11.132812 -12.007812 11 -12.53125 C 10.863281 -13.050781 10.65625 -13.503906 10.375 -13.890625 C 10.09375 -14.285156 9.734375 -14.609375 9.296875 -14.859375 C 8.859375 -15.109375 8.34375 -15.234375 7.75 -15.234375 C 7.144531 -15.234375 6.609375 -15.113281 6.140625 -14.875 C 5.679688 -14.632812 5.285156 -14.316406 4.953125 -13.921875 C 4.617188 -13.523438 4.351562 -13.066406 4.15625 -12.546875 C 3.96875 -12.035156 3.847656 -11.507812 3.796875 -10.96875 Z M 11.203125 -10.96875 "/></g></g></g><g fill="#000000" fill-opacity="1"><g transform="translate(236.720045, 223.992592)"><g/></g></g><g fill="#000000" fill-opacity="1"><g transform="translate(253.3367, 223.992592)"><g><path d="M 25.40625 -23.0625 C 24.914062 -22.988281 24.484375 -22.847656 24.109375 -22.640625 C 23.742188 -22.441406 23.421875 -22.195312 23.140625 -21.90625 C 22.859375 -21.613281 22.617188 -21.273438 22.421875 -20.890625 C 22.222656 -20.515625 22.03125 -20.101562 21.84375 -19.65625 L 13.59375 0.578125 L 12.953125 0.578125 L 4.078125 -19.890625 C 3.859375 -20.390625 3.648438 -20.820312 3.453125 -21.1875 C 3.253906 -21.5625 3.019531 -21.878906 2.75 -22.140625 C 2.476562 -22.398438 2.148438 -22.601562 1.765625 -22.75 C 1.378906 -22.90625 0.898438 -23.007812 0.328125 -23.0625 L 0.328125 -23.703125 L 9.96875 -23.703125 L 9.96875 -23.0625 C 9.71875 -23.050781 9.441406 -23.019531 9.140625 -22.96875 C 8.835938 -22.925781 8.550781 -22.847656 8.28125 -22.734375 C 8.019531 -22.617188 7.796875 -22.457031 7.609375 -22.25 C 7.429688 -22.039062 7.34375 -21.765625 7.34375 -21.421875 C 7.34375 -20.992188 7.421875 -20.566406 7.578125 -20.140625 C 7.734375 -19.722656 7.925781 -19.242188 8.15625 -18.703125 L 14.1875 -4.84375 L 19.796875 -18.625 C 19.859375 -18.769531 19.9375 -18.960938 20.03125 -19.203125 C 20.132812 -19.441406 20.222656 -19.6875 20.296875 -19.9375 C 20.378906 -20.195312 20.453125 -20.445312 20.515625 -20.6875 C 20.578125 -20.925781 20.609375 -21.140625 20.609375 -21.328125 C 20.609375 -21.640625 20.519531 -21.894531 20.34375 -22.09375 C 20.164062 -22.289062 19.945312 -22.457031 19.6875 -22.59375 C 19.4375 -22.726562 19.164062 -22.828125 18.875 -22.890625 C 18.582031 -22.960938 18.316406 -23.019531 18.078125 -23.0625 L 18.078125 -23.703125 L 25.40625 -23.703125 Z M 25.40625 -23.0625 "/></g></g></g><g fill="#000000" fill-opacity="1"><g transform="translate(283.907473, 223.992592)"><g><path d="M 14.859375 -5.84375 C 14.734375 -5.007812 14.488281 -4.207031 14.125 -3.4375 C 13.769531 -2.675781 13.304688 -2 12.734375 -1.40625 C 12.160156 -0.820312 11.5 -0.351562 10.75 0 C 10 0.351562 9.179688 0.53125 8.296875 0.53125 C 7.148438 0.53125 6.140625 0.289062 5.265625 -0.1875 C 4.398438 -0.664062 3.671875 -1.296875 3.078125 -2.078125 C 2.492188 -2.867188 2.054688 -3.765625 1.765625 -4.765625 C 1.472656 -5.765625 1.328125 -6.789062 1.328125 -7.84375 C 1.328125 -9 1.472656 -10.097656 1.765625 -11.140625 C 2.066406 -12.179688 2.523438 -13.097656 3.140625 -13.890625 C 3.753906 -14.679688 4.523438 -15.3125 5.453125 -15.78125 C 6.390625 -16.25 7.484375 -16.484375 8.734375 -16.484375 C 9.691406 -16.484375 10.550781 -16.320312 11.3125 -16 C 12.070312 -15.675781 12.710938 -15.222656 13.234375 -14.640625 C 13.765625 -14.054688 14.164062 -13.367188 14.4375 -12.578125 C 14.71875 -11.785156 14.859375 -10.914062 14.859375 -9.96875 L 3.796875 -9.96875 C 3.796875 -9.101562 3.910156 -8.222656 4.140625 -7.328125 C 4.378906 -6.429688 4.738281 -5.613281 5.21875 -4.875 C 5.695312 -4.144531 6.300781 -3.539062 7.03125 -3.0625 C 7.769531 -2.59375 8.640625 -2.359375 9.640625 -2.359375 C 10.265625 -2.359375 10.816406 -2.453125 11.296875 -2.640625 C 11.785156 -2.835938 12.21875 -3.109375 12.59375 -3.453125 C 12.976562 -3.804688 13.304688 -4.21875 13.578125 -4.6875 C 13.859375 -5.164062 14.109375 -5.675781 14.328125 -6.21875 Z M 11.203125 -10.96875 C 11.203125 -11.488281 11.132812 -12.007812 11 -12.53125 C 10.863281 -13.050781 10.65625 -13.503906 10.375 -13.890625 C 10.09375 -14.285156 9.734375 -14.609375 9.296875 -14.859375 C 8.859375 -15.109375 8.34375 -15.234375 7.75 -15.234375 C 7.144531 -15.234375 6.609375 -15.113281 6.140625 -14.875 C 5.679688 -14.632812 5.285156 -14.316406 4.953125 -13.921875 C 4.617188 -13.523438 4.351562 -13.066406 4.15625 -12.546875 C 3.96875 -12.035156 3.847656 -11.507812 3.796875 -10.96875 Z M 11.203125 -10.96875 "/></g></g></g><g fill="#000000" fill-opacity="1"><g transform="translate(304.557369, 223.992592)"><g><path d="M 1.328125 0 L 1.328125 -0.671875 C 1.878906 -0.671875 2.3125 -0.734375 2.625 -0.859375 C 2.945312 -0.992188 3.1875 -1.1875 3.34375 -1.4375 C 3.507812 -1.6875 3.609375 -1.988281 3.640625 -2.34375 C 3.679688 -2.707031 3.703125 -3.128906 3.703125 -3.609375 L 3.703125 -19.6875 C 3.703125 -20.070312 3.691406 -20.4375 3.671875 -20.78125 C 3.648438 -21.132812 3.59375 -21.441406 3.5 -21.703125 C 3.40625 -21.960938 3.273438 -22.171875 3.109375 -22.328125 C 2.941406 -22.484375 2.707031 -22.5625 2.40625 -22.5625 C 2.226562 -22.5625 2.050781 -22.539062 1.875 -22.5 C 1.707031 -22.457031 1.523438 -22.398438 1.328125 -22.328125 L 1.046875 -22.9375 L 5.84375 -24.828125 L 6.609375 -24.828125 L 6.609375 -3.609375 C 6.609375 -3.078125 6.632812 -2.625 6.6875 -2.25 C 6.738281 -1.875 6.851562 -1.570312 7.03125 -1.34375 C 7.207031 -1.113281 7.46875 -0.941406 7.8125 -0.828125 C 8.15625 -0.722656 8.617188 -0.671875 9.203125 -0.671875 L 9.203125 0 Z M 1.328125 0 "/></g></g></g><g fill="#000000" fill-opacity="1"><g transform="translate(319.273282, 223.992592)"><g><path d="M 14.859375 -5.84375 C 14.734375 -5.007812 14.488281 -4.207031 14.125 -3.4375 C 13.769531 -2.675781 13.304688 -2 12.734375 -1.40625 C 12.160156 -0.820312 11.5 -0.351562 10.75 0 C 10 0.351562 9.179688 0.53125 8.296875 0.53125 C 7.148438 0.53125 6.140625 0.289062 5.265625 -0.1875 C 4.398438 -0.664062 3.671875 -1.296875 3.078125 -2.078125 C 2.492188 -2.867188 2.054688 -3.765625 1.765625 -4.765625 C 1.472656 -5.765625 1.328125 -6.789062 1.328125 -7.84375 C 1.328125 -9 1.472656 -10.097656 1.765625 -11.140625 C 2.066406 -12.179688 2.523438 -13.097656 3.140625 -13.890625 C 3.753906 -14.679688 4.523438 -15.3125 5.453125 -15.78125 C 6.390625 -16.25 7.484375 -16.484375 8.734375 -16.484375 C 9.691406 -16.484375 10.550781 -16.320312 11.3125 -16 C 12.070312 -15.675781 12.710938 -15.222656 13.234375 -14.640625 C 13.765625 -14.054688 14.164062 -13.367188 14.4375 -12.578125 C 14.71875 -11.785156 14.859375 -10.914062 14.859375 -9.96875 L 3.796875 -9.96875 C 3.796875 -9.101562 3.910156 -8.222656 4.140625 -7.328125 C 4.378906 -6.429688 4.738281 -5.613281 5.21875 -4.875 C 5.695312 -4.144531 6.300781 -3.539062 7.03125 -3.0625 C 7.769531 -2.59375 8.640625 -2.359375 9.640625 -2.359375 C 10.265625 -2.359375 10.816406 -2.453125 11.296875 -2.640625 C 11.785156 -2.835938 12.21875 -3.109375 12.59375 -3.453125 C 12.976562 -3.804688 13.304688 -4.21875 13.578125 -4.6875 C 13.859375 -5.164062 14.109375 -5.675781 14.328125 -6.21875 Z M 11.203125 -10.96875 C 11.203125 -11.488281 11.132812 -12.007812 11 -12.53125 C 10.863281 -13.050781 10.65625 -13.503906 10.375 -13.890625 C 10.09375 -14.285156 9.734375 -14.609375 9.296875 -14.859375 C 8.859375 -15.109375 8.34375 -15.234375 7.75 -15.234375 C 7.144531 -15.234375 6.609375 -15.113281 6.140625 -14.875 C 5.679688 -14.632812 5.285156 -14.316406 4.953125 -13.921875 C 4.617188 -13.523438 4.351562 -13.066406 4.15625 -12.546875 C 3.96875 -12.035156 3.847656 -11.507812 3.796875 -10.96875 Z M 11.203125 -10.96875 "/></g></g></g><g fill="#000000" fill-opacity="1"><g transform="translate(339.923178, 223.992592)"><g><path d="M 4.5625 -1.1875 L 10.453125 -1.1875 C 11.273438 -1.1875 11.925781 -1.234375 12.40625 -1.328125 C 12.882812 -1.429688 13.257812 -1.617188 13.53125 -1.890625 C 13.800781 -2.160156 14 -2.535156 14.125 -3.015625 C 14.25 -3.492188 14.351562 -4.117188 14.4375 -4.890625 L 15.046875 -4.890625 L 14.8125 0 L 0.71875 0 L 0.71875 -0.671875 L 11.34375 -14.8125 L 6.078125 -14.8125 C 5.410156 -14.8125 4.859375 -14.769531 4.421875 -14.6875 C 3.992188 -14.613281 3.644531 -14.460938 3.375 -14.234375 C 3.101562 -14.003906 2.898438 -13.675781 2.765625 -13.25 C 2.640625 -12.820312 2.535156 -12.269531 2.453125 -11.59375 L 1.8125 -11.59375 L 1.90625 -16 L 15.34375 -16 L 15.34375 -15.34375 Z M 4.5625 -1.1875 "/></g></g></g><g fill="#000000" fill-opacity="1"><g transform="translate(120.407648, 261.968304)"><g><path d="M 10.921875 -2.6875 C 10.410156 -1.75 9.765625 -1.019531 8.984375 -0.5 C 8.203125 0.0195312 7.273438 0.28125 6.203125 0.28125 C 5.347656 0.28125 4.578125 0.132812 3.890625 -0.15625 C 3.203125 -0.457031 2.613281 -0.867188 2.125 -1.390625 C 1.644531 -1.921875 1.269531 -2.539062 1 -3.25 C 0.738281 -3.957031 0.609375 -4.726562 0.609375 -5.5625 C 0.609375 -6.414062 0.75 -7.210938 1.03125 -7.953125 C 1.3125 -8.691406 1.707031 -9.335938 2.21875 -9.890625 C 2.738281 -10.453125 3.351562 -10.894531 4.0625 -11.21875 C 4.78125 -11.539062 5.570312 -11.703125 6.4375 -11.703125 C 6.726562 -11.703125 7 -11.679688 7.25 -11.640625 C 7.5 -11.597656 7.742188 -11.539062 7.984375 -11.46875 C 8.222656 -11.40625 8.453125 -11.328125 8.671875 -11.234375 C 8.898438 -11.140625 9.148438 -11.035156 9.421875 -10.921875 C 9.523438 -10.921875 9.617188 -10.945312 9.703125 -11 C 9.785156 -11.050781 9.851562 -11.113281 9.90625 -11.1875 C 9.957031 -11.269531 10 -11.351562 10.03125 -11.4375 C 10.070312 -11.53125 10.101562 -11.617188 10.125 -11.703125 L 10.421875 -11.703125 L 10.671875 -7.828125 L 10.421875 -7.828125 C 10.273438 -8.304688 10.09375 -8.742188 9.875 -9.140625 C 9.65625 -9.535156 9.390625 -9.878906 9.078125 -10.171875 C 8.773438 -10.460938 8.414062 -10.691406 8 -10.859375 C 7.582031 -11.023438 7.113281 -11.109375 6.59375 -11.109375 C 6.070312 -11.109375 5.609375 -11.03125 5.203125 -10.875 C 4.804688 -10.71875 4.457031 -10.503906 4.15625 -10.234375 C 3.851562 -9.972656 3.597656 -9.660156 3.390625 -9.296875 C 3.179688 -8.941406 3.015625 -8.554688 2.890625 -8.140625 C 2.773438 -7.722656 2.6875 -7.289062 2.625 -6.84375 C 2.570312 -6.40625 2.546875 -5.96875 2.546875 -5.53125 C 2.546875 -4.84375 2.625 -4.191406 2.78125 -3.578125 C 2.945312 -2.972656 3.203125 -2.4375 3.546875 -1.96875 C 3.898438 -1.507812 4.347656 -1.144531 4.890625 -0.875 C 5.429688 -0.613281 6.082031 -0.484375 6.84375 -0.484375 C 7.3125 -0.484375 7.726562 -0.535156 8.09375 -0.640625 C 8.457031 -0.753906 8.785156 -0.914062 9.078125 -1.125 C 9.378906 -1.332031 9.65625 -1.582031 9.90625 -1.875 C 10.15625 -2.164062 10.410156 -2.5 10.671875 -2.875 Z M 10.921875 -2.6875 "/></g></g></g><g fill="#000000" fill-opacity="1"><g transform="translate(135.397124, 261.968304)"><g><path d="M 8.0625 -4.015625 C 8.0625 -3.453125 7.972656 -2.910156 7.796875 -2.390625 C 7.617188 -1.878906 7.363281 -1.425781 7.03125 -1.03125 C 6.707031 -0.644531 6.3125 -0.332031 5.84375 -0.09375 C 5.375 0.132812 4.84375 0.25 4.25 0.25 C 3.6875 0.25 3.175781 0.140625 2.71875 -0.078125 C 2.269531 -0.304688 1.882812 -0.609375 1.5625 -0.984375 C 1.25 -1.359375 1.003906 -1.785156 0.828125 -2.265625 C 0.660156 -2.753906 0.578125 -3.257812 0.578125 -3.78125 C 0.578125 -4.332031 0.660156 -4.859375 0.828125 -5.359375 C 1.003906 -5.859375 1.253906 -6.300781 1.578125 -6.6875 C 1.910156 -7.082031 2.304688 -7.394531 2.765625 -7.625 C 3.234375 -7.851562 3.757812 -7.96875 4.34375 -7.96875 C 4.894531 -7.96875 5.398438 -7.863281 5.859375 -7.65625 C 6.328125 -7.457031 6.722656 -7.175781 7.046875 -6.8125 C 7.367188 -6.457031 7.617188 -6.035156 7.796875 -5.546875 C 7.972656 -5.066406 8.0625 -4.554688 8.0625 -4.015625 Z M 6.484375 -3.34375 C 6.484375 -3.59375 6.46875 -3.867188 6.4375 -4.171875 C 6.40625 -4.472656 6.351562 -4.773438 6.28125 -5.078125 C 6.207031 -5.378906 6.109375 -5.664062 5.984375 -5.9375 C 5.867188 -6.21875 5.71875 -6.46875 5.53125 -6.6875 C 5.351562 -6.914062 5.140625 -7.09375 4.890625 -7.21875 C 4.648438 -7.351562 4.375 -7.421875 4.0625 -7.421875 C 3.675781 -7.421875 3.359375 -7.320312 3.109375 -7.125 C 2.867188 -6.9375 2.675781 -6.695312 2.53125 -6.40625 C 2.382812 -6.125 2.285156 -5.8125 2.234375 -5.46875 C 2.179688 -5.125 2.15625 -4.800781 2.15625 -4.5 C 2.15625 -4.25 2.171875 -3.972656 2.203125 -3.671875 C 2.242188 -3.378906 2.300781 -3.078125 2.375 -2.765625 C 2.445312 -2.460938 2.546875 -2.164062 2.671875 -1.875 C 2.796875 -1.59375 2.945312 -1.335938 3.125 -1.109375 C 3.300781 -0.878906 3.507812 -0.695312 3.75 -0.5625 C 4 -0.4375 4.28125 -0.375 4.59375 -0.375 C 5 -0.375 5.320312 -0.46875 5.5625 -0.65625 C 5.8125 -0.84375 6.003906 -1.082031 6.140625 -1.375 C 6.273438 -1.675781 6.363281 -2 6.40625 -2.34375 C 6.457031 -2.695312 6.484375 -3.03125 6.484375 -3.34375 Z M 6.484375 -3.34375 "/></g></g></g><g fill="#000000" fill-opacity="1"><g transform="translate(147.494553, 261.968304)"><g><path d="M 6.328125 0.25 L 5.9375 0.25 L 5.9375 -1.40625 C 5.769531 -1.21875 5.585938 -1.023438 5.390625 -0.828125 C 5.191406 -0.628906 4.984375 -0.453125 4.765625 -0.296875 C 4.546875 -0.140625 4.3125 -0.0078125 4.0625 0.09375 C 3.820312 0.195312 3.570312 0.25 3.3125 0.25 C 2.882812 0.25 2.539062 0.160156 2.28125 -0.015625 C 2.019531 -0.203125 1.816406 -0.441406 1.671875 -0.734375 C 1.523438 -1.023438 1.425781 -1.347656 1.375 -1.703125 C 1.332031 -2.066406 1.3125 -2.414062 1.3125 -2.75 L 1.3125 -6.21875 C 1.3125 -6.46875 1.285156 -6.671875 1.234375 -6.828125 C 1.191406 -6.992188 1.117188 -7.117188 1.015625 -7.203125 C 0.910156 -7.285156 0.773438 -7.34375 0.609375 -7.375 C 0.441406 -7.40625 0.238281 -7.421875 0 -7.421875 L 0 -7.734375 L 2.734375 -7.734375 L 2.734375 -2.5625 C 2.734375 -2.34375 2.75 -2.128906 2.78125 -1.921875 C 2.8125 -1.710938 2.875 -1.523438 2.96875 -1.359375 C 3.0625 -1.191406 3.191406 -1.054688 3.359375 -0.953125 C 3.535156 -0.859375 3.753906 -0.8125 4.015625 -0.8125 C 4.203125 -0.8125 4.382812 -0.84375 4.5625 -0.90625 C 4.738281 -0.976562 4.910156 -1.066406 5.078125 -1.171875 C 5.242188 -1.273438 5.398438 -1.390625 5.546875 -1.515625 C 5.691406 -1.648438 5.820312 -1.78125 5.9375 -1.90625 L 5.9375 -6.28125 C 5.9375 -6.519531 5.910156 -6.710938 5.859375 -6.859375 C 5.816406 -7.003906 5.742188 -7.117188 5.640625 -7.203125 C 5.535156 -7.285156 5.40625 -7.34375 5.25 -7.375 C 5.09375 -7.40625 4.90625 -7.421875 4.6875 -7.421875 L 4.6875 -7.734375 L 7.34375 -7.734375 L 7.34375 -2.046875 C 7.34375 -1.960938 7.34375 -1.851562 7.34375 -1.71875 C 7.351562 -1.582031 7.375 -1.453125 7.40625 -1.328125 C 7.445312 -1.203125 7.5 -1.09375 7.5625 -1 C 7.632812 -0.914062 7.738281 -0.875 7.875 -0.875 C 8.09375 -0.875 8.320312 -0.921875 8.5625 -1.015625 L 8.671875 -0.703125 Z M 6.328125 0.25 "/></g></g></g><g fill="#000000" fill-opacity="1"><g transform="translate(159.591981, 261.968304)"><g><path d="M 4.75 0 L 4.75 -0.328125 C 5.039062 -0.328125 5.269531 -0.347656 5.4375 -0.390625 C 5.601562 -0.429688 5.726562 -0.503906 5.8125 -0.609375 C 5.90625 -0.722656 5.960938 -0.867188 5.984375 -1.046875 C 6.003906 -1.234375 6.015625 -1.46875 6.015625 -1.75 L 6.015625 -4.90625 C 6.015625 -5.125 6.003906 -5.351562 5.984375 -5.59375 C 5.972656 -5.832031 5.925781 -6.050781 5.84375 -6.25 C 5.757812 -6.445312 5.632812 -6.609375 5.46875 -6.734375 C 5.300781 -6.859375 5.078125 -6.921875 4.796875 -6.921875 C 4.597656 -6.921875 4.40625 -6.890625 4.21875 -6.828125 C 4.03125 -6.765625 3.847656 -6.679688 3.671875 -6.578125 C 3.503906 -6.484375 3.347656 -6.367188 3.203125 -6.234375 C 3.066406 -6.097656 2.929688 -5.960938 2.796875 -5.828125 L 2.796875 -1.75 C 2.796875 -1.476562 2.804688 -1.25 2.828125 -1.0625 C 2.859375 -0.882812 2.910156 -0.738281 2.984375 -0.625 C 3.066406 -0.507812 3.191406 -0.429688 3.359375 -0.390625 C 3.535156 -0.347656 3.769531 -0.328125 4.0625 -0.328125 L 4.0625 0 L 0.203125 0 L 0.203125 -0.328125 C 0.484375 -0.328125 0.703125 -0.351562 0.859375 -0.40625 C 1.015625 -0.46875 1.128906 -0.554688 1.203125 -0.671875 C 1.285156 -0.785156 1.332031 -0.929688 1.34375 -1.109375 C 1.363281 -1.285156 1.375 -1.5 1.375 -1.75 L 1.375 -5.3125 C 1.375 -5.507812 1.367188 -5.695312 1.359375 -5.875 C 1.347656 -6.0625 1.320312 -6.226562 1.28125 -6.375 C 1.238281 -6.519531 1.175781 -6.632812 1.09375 -6.71875 C 1.019531 -6.8125 0.914062 -6.859375 0.78125 -6.859375 C 0.6875 -6.859375 0.585938 -6.84375 0.484375 -6.8125 C 0.390625 -6.789062 0.296875 -6.757812 0.203125 -6.71875 L 0.09375 -7.03125 L 2.453125 -7.96875 L 2.796875 -7.96875 L 2.796875 -6.328125 C 2.953125 -6.515625 3.125 -6.703125 3.3125 -6.890625 C 3.507812 -7.085938 3.71875 -7.265625 3.9375 -7.421875 C 4.15625 -7.585938 4.382812 -7.71875 4.625 -7.8125 C 4.875 -7.914062 5.128906 -7.96875 5.390625 -7.96875 C 5.804688 -7.96875 6.144531 -7.878906 6.40625 -7.703125 C 6.675781 -7.535156 6.882812 -7.3125 7.03125 -7.03125 C 7.1875 -6.75 7.289062 -6.429688 7.34375 -6.078125 C 7.394531 -5.734375 7.421875 -5.390625 7.421875 -5.046875 L 7.421875 -1.75 C 7.421875 -1.5 7.429688 -1.285156 7.453125 -1.109375 C 7.472656 -0.929688 7.519531 -0.785156 7.59375 -0.671875 C 7.675781 -0.554688 7.796875 -0.46875 7.953125 -0.40625 C 8.117188 -0.351562 8.34375 -0.328125 8.625 -0.328125 L 8.625 0 Z M 4.75 0 "/></g></g></g><g fill="#000000" fill-opacity="1"><g transform="translate(171.68941, 261.968304)"><g><path d="M 4.8125 -1.421875 C 4.757812 -1.203125 4.671875 -0.992188 4.546875 -0.796875 C 4.429688 -0.597656 4.285156 -0.414062 4.109375 -0.25 C 3.941406 -0.09375 3.753906 0.0234375 3.546875 0.109375 C 3.335938 0.203125 3.117188 0.25 2.890625 0.25 C 2.585938 0.25 2.335938 0.191406 2.140625 0.078125 C 1.941406 -0.0351562 1.78125 -0.1875 1.65625 -0.375 C 1.539062 -0.5625 1.460938 -0.78125 1.421875 -1.03125 C 1.378906 -1.28125 1.359375 -1.535156 1.359375 -1.796875 L 1.359375 -7.15625 L 0.140625 -7.15625 L 0.140625 -7.421875 C 0.429688 -7.535156 0.695312 -7.695312 0.9375 -7.90625 C 1.175781 -8.113281 1.394531 -8.347656 1.59375 -8.609375 C 1.789062 -8.878906 1.96875 -9.160156 2.125 -9.453125 C 2.28125 -9.742188 2.410156 -10.019531 2.515625 -10.28125 L 2.78125 -10.28125 L 2.78125 -7.734375 L 4.59375 -7.734375 L 4.59375 -7.15625 L 2.78125 -7.15625 L 2.78125 -2 C 2.78125 -1.863281 2.785156 -1.722656 2.796875 -1.578125 C 2.816406 -1.429688 2.851562 -1.289062 2.90625 -1.15625 C 2.96875 -1.03125 3.046875 -0.921875 3.140625 -0.828125 C 3.242188 -0.742188 3.375 -0.703125 3.53125 -0.703125 C 3.78125 -0.703125 3.976562 -0.765625 4.125 -0.890625 C 4.28125 -1.023438 4.40625 -1.203125 4.5 -1.421875 Z M 4.8125 -1.421875 "/></g></g></g><g fill="#000000" fill-opacity="1"><g transform="translate(179.953194, 261.968304)"><g><path d="M 5.890625 -7.03125 C 5.890625 -6.820312 5.8125 -6.640625 5.65625 -6.484375 C 5.507812 -6.328125 5.332031 -6.25 5.125 -6.25 C 4.976562 -6.25 4.851562 -6.28125 4.75 -6.34375 C 4.644531 -6.40625 4.546875 -6.46875 4.453125 -6.53125 C 4.359375 -6.601562 4.269531 -6.671875 4.1875 -6.734375 C 4.101562 -6.804688 4.015625 -6.84375 3.921875 -6.84375 C 3.753906 -6.84375 3.570312 -6.710938 3.375 -6.453125 C 3.175781 -6.203125 2.984375 -5.894531 2.796875 -5.53125 L 2.796875 -1.796875 C 2.796875 -1.296875 2.890625 -0.925781 3.078125 -0.6875 C 3.265625 -0.445312 3.625 -0.328125 4.15625 -0.328125 L 4.15625 0 L 0.15625 0 L 0.15625 -0.328125 C 0.445312 -0.328125 0.671875 -0.347656 0.828125 -0.390625 C 0.992188 -0.429688 1.117188 -0.507812 1.203125 -0.625 C 1.285156 -0.738281 1.332031 -0.882812 1.34375 -1.0625 C 1.363281 -1.25 1.375 -1.476562 1.375 -1.75 L 1.375 -5.09375 C 1.375 -5.351562 1.367188 -5.585938 1.359375 -5.796875 C 1.347656 -6.015625 1.316406 -6.203125 1.265625 -6.359375 C 1.222656 -6.515625 1.15625 -6.632812 1.0625 -6.71875 C 0.976562 -6.800781 0.851562 -6.84375 0.6875 -6.84375 C 0.519531 -6.84375 0.34375 -6.800781 0.15625 -6.71875 L 0.0625 -7.03125 L 2.453125 -7.96875 L 2.796875 -7.96875 L 2.796875 -6.21875 C 2.898438 -6.394531 3.015625 -6.582031 3.140625 -6.78125 C 3.273438 -6.988281 3.425781 -7.179688 3.59375 -7.359375 C 3.769531 -7.535156 3.957031 -7.679688 4.15625 -7.796875 C 4.351562 -7.910156 4.566406 -7.96875 4.796875 -7.96875 C 4.929688 -7.96875 5.066406 -7.945312 5.203125 -7.90625 C 5.335938 -7.863281 5.453125 -7.800781 5.546875 -7.71875 C 5.648438 -7.632812 5.734375 -7.535156 5.796875 -7.421875 C 5.859375 -7.304688 5.890625 -7.175781 5.890625 -7.03125 Z M 5.890625 -7.03125 "/></g></g></g><g fill="#000000" fill-opacity="1"><g transform="translate(189.315507, 261.968304)"><g><path d="M 8.5625 -7.421875 C 8.382812 -7.398438 8.238281 -7.359375 8.125 -7.296875 C 8.007812 -7.234375 7.910156 -7.148438 7.828125 -7.046875 C 7.742188 -6.953125 7.671875 -6.835938 7.609375 -6.703125 C 7.546875 -6.566406 7.484375 -6.421875 7.421875 -6.265625 L 4.265625 1.46875 C 4.160156 1.726562 4.019531 1.992188 3.84375 2.265625 C 3.675781 2.535156 3.476562 2.78125 3.25 3 C 3.03125 3.21875 2.785156 3.394531 2.515625 3.53125 C 2.253906 3.675781 1.960938 3.75 1.640625 3.75 C 1.503906 3.75 1.363281 3.726562 1.21875 3.6875 C 1.082031 3.644531 0.960938 3.582031 0.859375 3.5 C 0.753906 3.414062 0.664062 3.3125 0.59375 3.1875 C 0.53125 3.070312 0.5 2.9375 0.5 2.78125 C 0.5 2.5 0.578125 2.300781 0.734375 2.1875 C 0.890625 2.070312 1.097656 2.015625 1.359375 2.015625 C 1.460938 2.015625 1.5625 2.03125 1.65625 2.0625 C 1.757812 2.09375 1.863281 2.128906 1.96875 2.171875 C 2.070312 2.210938 2.171875 2.242188 2.265625 2.265625 C 2.359375 2.296875 2.453125 2.3125 2.546875 2.3125 C 2.691406 2.3125 2.832031 2.257812 2.96875 2.15625 C 3.101562 2.050781 3.226562 1.910156 3.34375 1.734375 C 3.457031 1.566406 3.5625 1.378906 3.65625 1.171875 C 3.757812 0.972656 3.847656 0.773438 3.921875 0.578125 C 4.003906 0.390625 4.070312 0.210938 4.125 0.046875 C 4.1875 -0.117188 4.234375 -0.242188 4.265625 -0.328125 L 1.484375 -6.15625 C 1.410156 -6.300781 1.332031 -6.445312 1.25 -6.59375 C 1.164062 -6.738281 1.070312 -6.867188 0.96875 -6.984375 C 0.863281 -7.097656 0.738281 -7.191406 0.59375 -7.265625 C 0.445312 -7.347656 0.28125 -7.398438 0.09375 -7.421875 L 0.09375 -7.734375 L 3.71875 -7.734375 L 3.71875 -7.421875 C 3.601562 -7.421875 3.488281 -7.414062 3.375 -7.40625 C 3.269531 -7.394531 3.171875 -7.375 3.078125 -7.34375 C 2.984375 -7.3125 2.90625 -7.257812 2.84375 -7.1875 C 2.78125 -7.113281 2.75 -7.003906 2.75 -6.859375 C 2.75 -6.703125 2.78125 -6.546875 2.84375 -6.390625 C 2.914062 -6.234375 2.984375 -6.082031 3.046875 -5.9375 L 4.9375 -2.046875 L 6.65625 -6.328125 C 6.695312 -6.429688 6.738281 -6.535156 6.78125 -6.640625 C 6.820312 -6.742188 6.84375 -6.847656 6.84375 -6.953125 C 6.84375 -7.066406 6.816406 -7.15625 6.765625 -7.21875 C 6.710938 -7.28125 6.644531 -7.328125 6.5625 -7.359375 C 6.488281 -7.390625 6.40625 -7.40625 6.3125 -7.40625 C 6.21875 -7.414062 6.128906 -7.421875 6.046875 -7.421875 L 6.046875 -7.734375 L 8.5625 -7.734375 Z M 8.5625 -7.421875 "/></g></g></g><g fill="#000000" fill-opacity="1"><g transform="translate(201.412936, 261.968304)"><g/></g></g><g fill="#000000" fill-opacity="1"><g transform="translate(210.595898, 261.968304)"><g><path d="M 10.921875 -2.6875 C 10.410156 -1.75 9.765625 -1.019531 8.984375 -0.5 C 8.203125 0.0195312 7.273438 0.28125 6.203125 0.28125 C 5.347656 0.28125 4.578125 0.132812 3.890625 -0.15625 C 3.203125 -0.457031 2.613281 -0.867188 2.125 -1.390625 C 1.644531 -1.921875 1.269531 -2.539062 1 -3.25 C 0.738281 -3.957031 0.609375 -4.726562 0.609375 -5.5625 C 0.609375 -6.414062 0.75 -7.210938 1.03125 -7.953125 C 1.3125 -8.691406 1.707031 -9.335938 2.21875 -9.890625 C 2.738281 -10.453125 3.351562 -10.894531 4.0625 -11.21875 C 4.78125 -11.539062 5.570312 -11.703125 6.4375 -11.703125 C 6.726562 -11.703125 7 -11.679688 7.25 -11.640625 C 7.5 -11.597656 7.742188 -11.539062 7.984375 -11.46875 C 8.222656 -11.40625 8.453125 -11.328125 8.671875 -11.234375 C 8.898438 -11.140625 9.148438 -11.035156 9.421875 -10.921875 C 9.523438 -10.921875 9.617188 -10.945312 9.703125 -11 C 9.785156 -11.050781 9.851562 -11.113281 9.90625 -11.1875 C 9.957031 -11.269531 10 -11.351562 10.03125 -11.4375 C 10.070312 -11.53125 10.101562 -11.617188 10.125 -11.703125 L 10.421875 -11.703125 L 10.671875 -7.828125 L 10.421875 -7.828125 C 10.273438 -8.304688 10.09375 -8.742188 9.875 -9.140625 C 9.65625 -9.535156 9.390625 -9.878906 9.078125 -10.171875 C 8.773438 -10.460938 8.414062 -10.691406 8 -10.859375 C 7.582031 -11.023438 7.113281 -11.109375 6.59375 -11.109375 C 6.070312 -11.109375 5.609375 -11.03125 5.203125 -10.875 C 4.804688 -10.71875 4.457031 -10.503906 4.15625 -10.234375 C 3.851562 -9.972656 3.597656 -9.660156 3.390625 -9.296875 C 3.179688 -8.941406 3.015625 -8.554688 2.890625 -8.140625 C 2.773438 -7.722656 2.6875 -7.289062 2.625 -6.84375 C 2.570312 -6.40625 2.546875 -5.96875 2.546875 -5.53125 C 2.546875 -4.84375 2.625 -4.191406 2.78125 -3.578125 C 2.945312 -2.972656 3.203125 -2.4375 3.546875 -1.96875 C 3.898438 -1.507812 4.347656 -1.144531 4.890625 -0.875 C 5.429688 -0.613281 6.082031 -0.484375 6.84375 -0.484375 C 7.3125 -0.484375 7.726562 -0.535156 8.09375 -0.640625 C 8.457031 -0.753906 8.785156 -0.914062 9.078125 -1.125 C 9.378906 -1.332031 9.65625 -1.582031 9.90625 -1.875 C 10.15625 -2.164062 10.410156 -2.5 10.671875 -2.875 Z M 10.921875 -2.6875 "/></g></g></g><g fill="#000000" fill-opacity="1"><g transform="translate(225.585368, 261.968304)"><g><path d="M 0.640625 0 L 0.640625 -0.328125 C 0.910156 -0.328125 1.117188 -0.359375 1.265625 -0.421875 C 1.421875 -0.484375 1.535156 -0.570312 1.609375 -0.6875 C 1.691406 -0.8125 1.742188 -0.960938 1.765625 -1.140625 C 1.785156 -1.316406 1.796875 -1.519531 1.796875 -1.75 L 1.796875 -9.515625 C 1.796875 -9.703125 1.789062 -9.878906 1.78125 -10.046875 C 1.769531 -10.210938 1.738281 -10.359375 1.6875 -10.484375 C 1.644531 -10.617188 1.582031 -10.722656 1.5 -10.796875 C 1.414062 -10.867188 1.304688 -10.90625 1.171875 -10.90625 C 1.078125 -10.90625 0.988281 -10.894531 0.90625 -10.875 C 0.820312 -10.851562 0.734375 -10.828125 0.640625 -10.796875 L 0.5 -11.078125 L 2.828125 -12 L 3.1875 -12 L 3.1875 -1.75 C 3.1875 -1.488281 3.195312 -1.265625 3.21875 -1.078125 C 3.25 -0.898438 3.304688 -0.753906 3.390625 -0.640625 C 3.484375 -0.535156 3.613281 -0.457031 3.78125 -0.40625 C 3.945312 -0.351562 4.171875 -0.328125 4.453125 -0.328125 L 4.453125 0 Z M 0.640625 0 "/></g></g></g><g fill="#000000" fill-opacity="1"><g transform="translate(233.849146, 261.968304)"><g><path d="M 6.328125 0.25 L 5.9375 0.25 L 5.9375 -1.40625 C 5.769531 -1.21875 5.585938 -1.023438 5.390625 -0.828125 C 5.191406 -0.628906 4.984375 -0.453125 4.765625 -0.296875 C 4.546875 -0.140625 4.3125 -0.0078125 4.0625 0.09375 C 3.820312 0.195312 3.570312 0.25 3.3125 0.25 C 2.882812 0.25 2.539062 0.160156 2.28125 -0.015625 C 2.019531 -0.203125 1.816406 -0.441406 1.671875 -0.734375 C 1.523438 -1.023438 1.425781 -1.347656 1.375 -1.703125 C 1.332031 -2.066406 1.3125 -2.414062 1.3125 -2.75 L 1.3125 -6.21875 C 1.3125 -6.46875 1.285156 -6.671875 1.234375 -6.828125 C 1.191406 -6.992188 1.117188 -7.117188 1.015625 -7.203125 C 0.910156 -7.285156 0.773438 -7.34375 0.609375 -7.375 C 0.441406 -7.40625 0.238281 -7.421875 0 -7.421875 L 0 -7.734375 L 2.734375 -7.734375 L 2.734375 -2.5625 C 2.734375 -2.34375 2.75 -2.128906 2.78125 -1.921875 C 2.8125 -1.710938 2.875 -1.523438 2.96875 -1.359375 C 3.0625 -1.191406 3.191406 -1.054688 3.359375 -0.953125 C 3.535156 -0.859375 3.753906 -0.8125 4.015625 -0.8125 C 4.203125 -0.8125 4.382812 -0.84375 4.5625 -0.90625 C 4.738281 -0.976562 4.910156 -1.066406 5.078125 -1.171875 C 5.242188 -1.273438 5.398438 -1.390625 5.546875 -1.515625 C 5.691406 -1.648438 5.820312 -1.78125 5.9375 -1.90625 L 5.9375 -6.28125 C 5.9375 -6.519531 5.910156 -6.710938 5.859375 -6.859375 C 5.816406 -7.003906 5.742188 -7.117188 5.640625 -7.203125 C 5.535156 -7.285156 5.40625 -7.34375 5.25 -7.375 C 5.09375 -7.40625 4.90625 -7.421875 4.6875 -7.421875 L 4.6875 -7.734375 L 7.34375 -7.734375 L 7.34375 -2.046875 C 7.34375 -1.960938 7.34375 -1.851562 7.34375 -1.71875 C 7.351562 -1.582031 7.375 -1.453125 7.40625 -1.328125 C 7.445312 -1.203125 7.5 -1.09375 7.5625 -1 C 7.632812 -0.914062 7.738281 -0.875 7.875 -0.875 C 8.09375 -0.875 8.320312 -0.921875 8.5625 -1.015625 L 8.671875 -0.703125 Z M 6.328125 0.25 "/></g></g></g><g fill="#000000" fill-opacity="1"><g transform="translate(245.94658, 261.968304)"><g><path d="M 8.0625 -4.1875 C 8.0625 -3.613281 7.960938 -3.054688 7.765625 -2.515625 C 7.578125 -1.984375 7.304688 -1.515625 6.953125 -1.109375 C 6.609375 -0.703125 6.191406 -0.375 5.703125 -0.125 C 5.210938 0.125 4.664062 0.25 4.0625 0.25 C 3.539062 0.25 3.039062 0.15625 2.5625 -0.03125 C 2.09375 -0.226562 1.65625 -0.472656 1.25 -0.765625 L 1.25 -8.96875 C 1.25 -9.289062 1.242188 -9.570312 1.234375 -9.8125 C 1.222656 -10.0625 1.195312 -10.265625 1.15625 -10.421875 C 1.113281 -10.585938 1.050781 -10.707031 0.96875 -10.78125 C 0.894531 -10.863281 0.785156 -10.90625 0.640625 -10.90625 C 0.535156 -10.90625 0.4375 -10.890625 0.34375 -10.859375 C 0.25 -10.835938 0.148438 -10.816406 0.046875 -10.796875 L -0.0625 -11.078125 L 2.28125 -12 L 2.671875 -12 L 2.671875 -6.40625 C 2.804688 -6.601562 2.960938 -6.796875 3.140625 -6.984375 C 3.316406 -7.171875 3.503906 -7.335938 3.703125 -7.484375 C 3.910156 -7.628906 4.128906 -7.742188 4.359375 -7.828125 C 4.585938 -7.921875 4.832031 -7.96875 5.09375 -7.96875 C 5.601562 -7.96875 6.046875 -7.851562 6.421875 -7.625 C 6.796875 -7.394531 7.101562 -7.097656 7.34375 -6.734375 C 7.582031 -6.378906 7.757812 -5.976562 7.875 -5.53125 C 8 -5.082031 8.0625 -4.632812 8.0625 -4.1875 Z M 6.59375 -3.703125 C 6.59375 -4.023438 6.550781 -4.363281 6.46875 -4.71875 C 6.394531 -5.082031 6.269531 -5.414062 6.09375 -5.71875 C 5.925781 -6.019531 5.703125 -6.269531 5.421875 -6.46875 C 5.148438 -6.664062 4.8125 -6.765625 4.40625 -6.765625 C 4.238281 -6.765625 4.070312 -6.738281 3.90625 -6.6875 C 3.75 -6.632812 3.597656 -6.566406 3.453125 -6.484375 C 3.304688 -6.398438 3.164062 -6.304688 3.03125 -6.203125 C 2.894531 -6.097656 2.773438 -5.988281 2.671875 -5.875 L 2.671875 -1.25 C 2.910156 -0.988281 3.179688 -0.78125 3.484375 -0.625 C 3.796875 -0.46875 4.132812 -0.390625 4.5 -0.390625 C 4.894531 -0.390625 5.222656 -0.5 5.484375 -0.71875 C 5.753906 -0.945312 5.96875 -1.226562 6.125 -1.5625 C 6.289062 -1.90625 6.410156 -2.269531 6.484375 -2.65625 C 6.554688 -3.039062 6.59375 -3.390625 6.59375 -3.703125 Z M 6.59375 -3.703125 "/></g></g></g><g clip-path="url(#id1)"><g clip-path="url(#id2)"><g clip-path="url(#id3)"><path fill="#5f7161" d="M 162.828125 127.824219 C 162.746094 127.914062 162.699219 128.019531 162.691406 128.136719 C 162.679688 128.257812 162.710938 128.367188 162.78125 128.46875 C 163.898438 130.085938 164.273438 131.558594 164.8125 133.589844 C 165.402344 135.929688 166.148438 138.21875 167.046875 140.457031 C 169.824219 147.304688 177.136719 149.125 187.984375 151.121094 C 198.625 153.078125 208.914062 158.492188 209.460938 158.792969 C 209.851562 159.070312 213.578125 161.664062 220.925781 164.289062 C 216.386719 163.644531 211.824219 163.398438 207.242188 163.550781 C 202.980469 162.398438 198.109375 160.441406 192.933594 158.359375 C 179.800781 153.074219 163.445312 146.5 145.335938 148.328125 C 120.328125 150.839844 96.164062 168.324219 95.917969 168.488281 C 95.703125 168.644531 95.644531 168.847656 95.746094 169.09375 C 95.820312 169.34375 95.988281 169.464844 96.25 169.457031 C 105.117188 169.214844 113.140625 171.660156 120.90625 174.023438 C 133 177.675781 144.445312 181.148438 157.875 174.539062 C 179.445312 163.882812 206.910156 164.589844 207.179688 164.582031 C 207.179688 164.582031 207.179688 164.582031 207.203125 164.574219 C 207.226562 164.5625 215.921875 163.980469 228.921875 166.683594 C 241.921875 169.382812 256.449219 175.898438 256.59375 175.964844 C 256.71875 176.023438 256.847656 176.03125 256.980469 175.984375 C 257.113281 175.9375 257.207031 175.847656 257.269531 175.722656 C 257.324219 175.597656 257.332031 175.472656 257.285156 175.34375 C 257.238281 175.207031 257.148438 175.109375 257.015625 175.046875 C 256.925781 175.007812 251.335938 172.488281 243.988281 169.941406 C 242.257812 167.855469 240.191406 166.1875 237.792969 164.9375 C 237.765625 164.910156 237.730469 164.886719 237.699219 164.867188 C 237.046875 164.558594 236.394531 164.25 235.824219 163.910156 C 229.695312 160.402344 228.972656 155.957031 227.960938 149.503906 C 227.695312 147.800781 227.414062 146.039062 227.015625 144.101562 L 226.90625 143.566406 C 224.902344 133.914062 224.15625 130.300781 211.59375 127.210938 C 203.839844 125.347656 196.042969 125.15625 188.210938 126.640625 C 187.988281 126.691406 187.859375 126.832031 187.828125 127.058594 C 187.792969 127.285156 187.875 127.457031 188.070312 127.574219 C 189.554688 128.441406 192.144531 132.128906 195.140625 136.402344 C 198.898438 141.753906 203.152344 147.816406 207.34375 151.53125 C 211.75 155.4375 214.289062 156.101562 217.234375 156.890625 C 219.691406 157.46875 222.027344 158.371094 224.234375 159.597656 C 228.824219 162.136719 235.355469 164.964844 236.949219 165.660156 C 238.824219 166.585938 240.511719 167.777344 242.015625 169.230469 C 237.808594 167.800781 233.53125 166.617188 229.1875 165.683594 L 228.285156 165.5 C 216.953125 162.5 210.957031 158.558594 210.152344 158.007812 L 209.96875 157.65625 L 209.941406 157.574219 C 203.222656 144.855469 189.925781 135.148438 182.292969 134.910156 C 174.921875 134.683594 163.621094 127.824219 163.496094 127.753906 C 163.390625 127.683594 163.273438 127.652344 163.148438 127.664062 C 163.019531 127.679688 162.914062 127.730469 162.828125 127.824219 Z M 224.703125 158.703125 C 222.421875 157.433594 220.011719 156.5 217.472656 155.902344 C 214.652344 155.152344 212.230469 154.519531 207.992188 150.761719 C 203.890625 147.128906 199.488281 140.851562 195.953125 135.8125 C 193.3125 132.046875 191.128906 128.933594 189.503906 127.417969 C 196.828125 126.222656 204.105469 126.484375 211.332031 128.199219 C 223.261719 131.136719 223.871094 134.066406 225.882812 143.769531 L 225.992188 144.304688 C 226.390625 146.214844 226.664062 147.964844 226.929688 149.65625 C 227.363281 152.386719 227.742188 154.832031 228.527344 157.023438 C 228.808594 157.820312 229.15625 158.585938 229.570312 159.320312 C 229.011719 158.632812 228.496094 157.910156 228.023438 157.160156 C 226.1875 154.097656 224.152344 151.175781 221.910156 148.398438 C 219.667969 145.605469 217.152344 143.085938 214.371094 140.835938 C 211.574219 138.625 208.609375 136.675781 205.472656 134.984375 C 208.5625 136.746094 211.476562 138.765625 214.214844 141.035156 C 216.921875 143.34375 219.355469 145.910156 221.515625 148.734375 C 223.679688 151.546875 225.640625 154.496094 227.390625 157.582031 C 228.273438 159.066406 229.316406 160.421875 230.527344 161.652344 C 228.550781 160.710938 226.484375 159.6875 224.703125 158.703125 Z M 157.445312 173.605469 C 144.339844 180.066406 133.089844 176.640625 121.1875 173.015625 C 113.832031 170.761719 106.242188 168.464844 97.882812 168.390625 C 103.289062 164.722656 124.078125 151.496094 145.449219 149.347656 C 163.28125 147.550781 179.523438 154.0625 192.5625 159.300781 C 196.011719 160.6875 199.335938 162.023438 202.445312 163.101562 C 196.644531 162.09375 190.832031 161.234375 185.007812 160.527344 C 181.671875 160.121094 178.332031 159.769531 174.988281 159.472656 C 173.308594 159.320312 171.640625 159.191406 169.972656 159.066406 C 169.132812 158.992188 168.289062 158.972656 167.449219 158.929688 C 166.613281 158.890625 165.789062 158.824219 164.929688 158.84375 C 158.195312 158.816406 151.492188 159.246094 144.824219 160.140625 C 141.507812 160.542969 138.191406 161.035156 134.867188 161.609375 C 131.5625 162.171875 128.253906 162.792969 124.988281 163.515625 C 128.273438 162.832031 131.570312 162.246094 134.890625 161.734375 C 138.210938 161.226562 141.527344 160.761719 144.855469 160.390625 C 151.519531 159.585938 158.203125 159.246094 164.914062 159.359375 C 165.75 159.355469 166.5625 159.4375 167.417969 159.472656 C 168.269531 159.511719 169.070312 159.5625 169.929688 159.660156 C 171.605469 159.804688 173.28125 159.953125 174.9375 160.132812 C 178.273438 160.476562 181.601562 160.871094 184.921875 161.3125 C 190.039062 162.003906 195.136719 162.796875 200.203125 163.710938 C 190.519531 164.183594 172.546875 166.128906 157.445312 173.605469 Z M 182.242188 135.921875 C 189.085938 136.132812 200.734375 144.363281 207.585938 155.523438 C 205.828125 154.050781 204.050781 152.613281 202.253906 151.210938 C 199.671875 149.183594 196.96875 147.332031 194.140625 145.664062 C 192.707031 144.855469 191.207031 144.191406 189.644531 143.679688 C 188.09375 143.148438 186.515625 142.703125 184.9375 142.296875 C 183.359375 141.890625 181.769531 141.527344 180.175781 141.097656 C 178.589844 140.703125 177.074219 140.121094 175.628906 139.351562 C 177.054688 140.160156 178.558594 140.78125 180.140625 141.21875 C 181.703125 141.699219 183.28125 142.105469 184.847656 142.550781 C 186.417969 143 187.96875 143.480469 189.492188 144.050781 C 191.019531 144.589844 192.480469 145.277344 193.871094 146.113281 C 196.613281 147.832031 199.234375 149.726562 201.726562 151.792969 C 203.632812 153.335938 205.503906 154.9375 207.332031 156.570312 C 203.488281 154.753906 195.921875 151.519531 188.164062 150.09375 C 177.648438 148.15625 170.5625 146.417969 167.984375 140.050781 C 167.707031 139.363281 167.464844 138.71875 167.25 138.113281 C 166.546875 136.148438 166.136719 134.609375 165.792969 133.304688 C 165.492188 132.015625 165.085938 130.765625 164.570312 129.546875 C 168.039062 131.515625 176.21875 135.738281 182.214844 135.917969 Z M 182.242188 135.921875 " fill-opacity="1" fill-rule="nonzero"/></g></g></g></svg>